Description

Sinopse e detalhes

Sauron planeja um grande ataque a Minas Tirith, capital de Gondor, o que faz com que Gandalf (Ian McKellen) e Pippin (Billy Boyd) partam para o local na intenção de ajudar a resistência. Um exército é reunido por Theoden (Bernard Hill) em Rohan, em mais uma tentativa de deter as forças de Sauron. Enquanto isso Frodo (Elijah Wood), Sam (Sean Astin) e Gollum (Andy Serkins) seguem sua viagem rumo à Montanha da Perdição, para destruir o Um Anel.

Format : Matroska
Format version : Version 2
File size : 2.00 GiB
Duration : 3h 20mn
Overall bit rate : 1 422 Kbps
Encoded date : UTC 2013-05-04 09:44:44
Writing application : mkvmerge v5.8.0 ('No Sleep / Pillow') built on Sep 2 2012 15:37:04
Writing library : libebml v1.2.3 + libmatroska v1.3.0

Video
ID : 1
Format : AVC
Format/Info : Advanced Video Codec
Format profile : High@L4.1
Format settings, CABAC : Yes
Format settings, ReFrames : 4 frames
Muxing mode : Header stripping
Codec ID : V_MPEG4/ISO/AVC
Duration : 3h 20mn
Bit rate : 562 Kbps
Width : 720 pixels
Height : 288 pixels
Display aspect ratio : 2.500
Frame rate mode : Constant
Frame rate : 23.976 fps
Color space : YUV
Chroma subsampling : 4:2:0
Bit depth : 8 bits
Scan type : Progressive
Bits/(Pixel*Frame) : 0.113
Stream size : 808 MiB (40%)
Title : O Senhor do Aneis - O Retorno do Rei ( by fantasma )
Writing library : x264 core 130 r2273 b3065e6
Encoding settings : cabac=1 / ref=3 / deblock=1:0:0 / analyse=0x3:0x113 / me=hex / subme=7 / psy=1 / psy_rd=1.00:0.00 / mixed_ref=1 / me_range=16 / chroma_me=1 / trellis=1 / 8x8dct=1 / cqm=0 / deadzone=21,11 / fast_pskip=1 / chroma_qp_offset=-2 / threads=3 / lookahead_threads=1 / sliced_threads=0 / nr=0 / decimate=1 / interlaced=0 / bluray_compat=0 / constrained_intra=0 / bframes=3 / b_pyramid=2 / b_adapt=1 / b_bias=0 / direct=1 / weightb=1 / open_gop=0 / weightp=2 / keyint=240 / keyint_min=23 / scenecut=40 / intra_refresh=0 / rc_lookahead=40 / rc=crf / mbtree=1 / crf=23.0 / qcomp=0.60 / qpmin=0 / qpmax=69 / qpstep=4 / vbv_maxrate=62500 / vbv_bufsize=78125 / crf_max=0.0 / nal_hrd=none / ip_ratio=1.40 / aq=1:1.00
Language : Portuguese
Default : Yes
Forced : No

Audio #1
ID : 2
Format : AC-3
Format/Info : Audio Coding 3
Format profile : Dolby Digital
Mode extension : CM (complete main)
Format settings, Endianness : Big
Muxing mode : Header stripping
Codec ID : A_AC3
Duration : 3h 20mn
Bit rate mode : Constant
Bit rate : 192 Kbps
Channel(s) : 2 channels
Channel positions : Front: L R
Sampling rate : 48.0 KHz
Bit depth : 16 bits
Compression mode : Lossy
Stream size : 276 MiB (13%)
Title : by fantasma
Language : Portuguese
Default : Yes
Forced : No

Audio #2
ID : 3
Format : AC-3
Format/Info : Audio Coding 3
Mode extension : CM (complete main)
Format settings, Endianness : Big
Muxing mode : Header stripping
Codec ID : A_AC3
Duration : 3h 20mn
Bit rate mode : Constant
Bit rate : 448 Kbps
Channel(s) : 6 channels
Channel positions : Front: L C R, Side: L R, LFE
Sampling rate : 48.0 KHz
Bit depth : 16 bits
Compression mode : Lossy
Stream size : 644 MiB (31%)
Title : by fantasma
Language : English
Default : No
Forced : No

Audio #3
ID : 4
Format : AC-3
Format/Info : Audio Coding 3
Format profile : Dolby Digital
Mode extension : CM (complete main)
Format settings, Endianness : Big
Muxing mode : Header stripping
Codec ID : A_AC3
Duration : 3h 20mn
Bit rate mode : Constant
Bit rate : 192 Kbps
Channel(s) : 2 channels
Channel positions : Front: L R
Sampling rate : 48.0 KHz
Bit depth : 16 bits
Compression mode : Lossy
Stream size : 276 MiB (13%)
Title : by fantasma
Language : Spanish
Default : No
Forced : No

Text #1
ID : 5
Format : VobSub
Muxing mode : zlib
Codec ID : S_VOBSUB
Codec ID/Info : The same subtitle format used on DVDs
Title : Spanish - (Caption/Normal Size Char)
Language : Spanish
Default : No
Forced : No

Text #2
ID : 6
Format : VobSub
Muxing mode : zlib
Codec ID : S_VOBSUB
Codec ID/Info : The same subtitle format used on DVDs
Title : Portuguese - (Caption/Normal Size Char)
Language : Portuguese
Default : No
Forced : No

Text #3
ID : 7
Format : VobSub
Muxing mode : zlib
Codec ID : S_VOBSUB
Codec ID/Info : The same subtitle format used on DVDs
Title : English - (Caption/Normal Size Char)
Language : English
Default : No
Forced : No

Text #4
ID : 8
Format : UTF-8
Codec ID : S_TEXT/UTF8
Codec ID/Info : UTF-8 Plain Text
Title : Credito
Language : Portuguese
Default : Yes
Forced : No

Menu
00:00:00.000 : en:Chapter 01
00:06:11.634 : en:Chapter 02
00:09:08.134 : en:Chapter 03
00:12:05.634 : en:Chapter 04
00:15:07.634 : en:Chapter 05
00:19:06.134 : en:Chapter 06
00:26:42.134 : en:Chapter 07
00:29:36.134 : en:Chapter 08
00:31:36.134 : en:Chapter 09
00:37:09.134 : en:Chapter 10
00:39:45.634 : en:Chapter 11
00:43:41.134 : en:Chapter 12
00:44:16.634 : en:Chapter 13
00:46:32.134 : en:Chapter 14
00:49:18.134 : en:Chapter 15
00:51:48.134 : en:Chapter 16
00:56:04.634 : en:Chapter 17
00:58:04.634 : en:Chapter 18
01:01:05.634 : en:Chapter 19
01:06:24.634 : en:Chapter 20
01:11:05.634 : en:Chapter 21
01:14:39.634 : en:Chapter 22
01:19:21.134 : en:Chapter 23
01:21:49.134 : en:Chapter 24
01:23:12.134 : en:Chapter 25
01:25:12.634 : en:Chapter 26
01:26:58.634 : en:Chapter 27
01:29:52.134 : en:Chapter 28
01:37:16.167 : en:Chapter 29
01:46:24.334 : en:Chapter 30
01:47:00.834 : en:Chapter 31
01:47:35.334 : en:Chapter 32
01:48:42.334 : en:Chapter 33
01:54:43.334 : en:Chapter 34
01:55:48.834 : en:Chapter 35
02:01:24.834 : en:Chapter 36
02:03:20.334 : en:Chapter 37
02:07:11.334 : en:Chapter 38
02:08:41.334 : en:Chapter 39
02:10:27.334 : en:Chapter 40
02:11:20.334 : en:Chapter 41
02:12:10.834 : en:Chapter 42
02:14:11.834 : en:Chapter 43
02:16:17.334 : en:Chapter 44
02:18:05.334 : en:Chapter 45
02:24:31.334 : en:Chapter 46
02:26:25.334 : en:Chapter 47
02:29:27.834 : en:Chapter 48
02:34:02.834 : en:Chapter 49
02:36:14.834 : en:Chapter 50
02:37:18.334 : en:Chapter 51
02:38:50.834 : en:Chapter 52
02:39:24.834 : en:Chapter 53
02:45:03.334 : en:Chapter 54
02:47:16.334 : en:Chapter 55
02:50:48.834 : en:Chapter 56
02:53:07.834 : en:Chapter 57
02:58:01.334 : en:Chapter 58
03:02:42.834 : en:Chapter 59
03:11:59.834 : en:Chapter 60
03:20:45.001 : en:Chapter 61
